<?xml version="1.0" encoding="UTF-8"?>
<svg xmlns="http://www.w3.org/2000/svg" onmouseup="{ if(window.parent.document.onmouseup) window.parent.document.onmouseup(arguments[0]);}" height="314.95148" width="334.26917" inkscape:export-ydpi="152.25008" inkscape:export-xdpi="152.25008" inkscape:export-filename="D:\Captivate projects for TVP\Replay button.png" inkscape:version="1.0.2 (e86c870879, 2021-01-15)" sodipodi:docname="Replay_button_sand.svg" version="1.1" viewBox="0 0 334.26917 314.95148" id="Icons" xmlns:inkscape="http://www.inkscape.org/namespaces/inkscape" xmlns:sodipodi="http://sodipodi.sourceforge.net/DTD/sodipodi-0.dtd" xmlns:svg="http://www.w3.org/2000/svg" xmlns:rdf="http://www.w3.org/1999/02/22-rdf-syntax-ns#" xmlns:cc="http://creativecommons.org/ns#" xmlns:dc="http://purl.org/dc/elements/1.1/"><metadata id="metadata13"><rdf:RDF><cc:Work rdf:about=""><dc:format/><dc:type rdf:resource="http://purl.org/dc/dcmitype/StillImage"/><dc:title/></cc:Work></rdf:RDF></metadata><sodipodi:namedview fit-margin-bottom="0" fit-margin-right="0" fit-margin-left="0" fit-margin-top="0" inkscape:document-rotation="0" inkscape:current-layer="Icons" inkscape:window-maximized="1" inkscape:window-y="-8" inkscape:window-x="-8" inkscape:cy="85.220191" inkscape:cx="112.20314" inkscape:zoom="1.0826182" showgrid="false" id="namedview11" inkscape:window-height="1017" inkscape:window-width="1920" inkscape:pageshadow="2" inkscape:pageopacity="0" guidetolerance="10" gridtolerance="10" objecttolerance="10" borderopacity="1" bordercolor="#666666" pagecolor="#ffffff"/><defs id="defs4"><style id="style2">.cls-1{fill:#0a121a;}</style><style id="style838">.cls-1{fill:#0a121a;}</style></defs><path data-cppathid="10000" sodipodi:nodetypes="sscccccccssccs" style="fill:#f7e4cb;fill-opacity:1" id="path8" d="m 313.19722,236.25545 c 43.43,-75.22297 17.55798,-171.751318 -57.66499,-215.181318 -75.22296,-43.43 -171.746317,-17.56665 -215.176317,57.65632 -7.0441,12.19185 -12.424841,25.271598 -15.998921,38.890938 L 0,115.63144 l 28.142209,45.28484 36.473045,-40.74286 -24.913801,-1.4294 c 3.22153,-11.3529 7.83717,-22.262958 13.74145,-32.480888 39.255,-67.99166 126.550357,-91.41166 194.559327,-52.14666 68.00898,39.265 91.403,126.545358 52.138,194.554338 -25.75816,44.61444 -72.19191,70.04174 -120.28928,71.17113 l 0.35163,15.10955 c 53.17888,-1.2506 104.51022,-29.35959 132.99464,-78.69604 z" class="cls-1"/><path data-cppathid="10001" id="path835" d="M 135.97944,101.23447 240.3313,161.4689 135.97944,221.71701 Z" style="fill:#f7e4cb;fill-opacity:1;stroke-width:1.10765;stroke-miterlimit:10;stroke-dasharray:none"/></svg>